<mxfile host="65bd71144e">
    <diagram id="d4g0kJFl3SYcHpwaezAK" name="predict activity pool">
        <mxGraphModel dx="1066" dy="604" grid="1" gridSize="10" guides="1" tooltips="1" connect="1" arrows="1" fold="1" page="1" pageScale="1" pageWidth="850" pageHeight="1100" math="0" shadow="0">
            <root>
                <mxCell id="0"/>
                <mxCell id="1" parent="0"/>
                <mxCell id="4" value="" style="edgeStyle=none;html=1;" parent="1" source="2" target="3" edge="1">
                    <mxGeometry relative="1" as="geometry"/>
                </mxCell>
                <mxCell id="2" value="physical activity prediction" style="ellipse;whiteSpace=wrap;html=1;" parent="1" vertex="1">
                    <mxGeometry x="360" y="70" width="120" height="50" as="geometry"/>
                </mxCell>
                <mxCell id="10" value="" style="edgeStyle=none;html=1;" parent="1" source="3" target="9" edge="1">
                    <mxGeometry relative="1" as="geometry"/>
                </mxCell>
                <mxCell id="3" value="label encoding the categorical data&amp;nbsp;" style="rounded=1;whiteSpace=wrap;html=1;" parent="1" vertex="1">
                    <mxGeometry x="360" y="180" width="120" height="60" as="geometry"/>
                </mxCell>
                <mxCell id="19" value="" style="edgeStyle=none;html=1;" parent="1" source="5" target="18" edge="1">
                    <mxGeometry relative="1" as="geometry"/>
                </mxCell>
                <mxCell id="5" value="preprocess data apon feeding the datapoint to the prediction" style="rounded=1;whiteSpace=wrap;html=1;" parent="1" vertex="1">
                    <mxGeometry x="360" y="410" width="120" height="60" as="geometry"/>
                </mxCell>
                <mxCell id="27" style="edgeStyle=orthogonalEdgeStyle;html=1;entryX=0;entryY=0.5;entryDx=0;entryDy=0;" parent="1" source="7" target="28" edge="1">
                    <mxGeometry relative="1" as="geometry">
                        <mxPoint x="570" y="670" as="targetPoint"/>
                    </mxGeometry>
                </mxCell>
                <mxCell id="7" value="get the prediction&amp;nbsp;" style="rounded=1;whiteSpace=wrap;html=1;" parent="1" vertex="1">
                    <mxGeometry x="360" y="640" width="120" height="60" as="geometry"/>
                </mxCell>
                <mxCell id="11" style="edgeStyle=none;html=1;entryX=0.5;entryY=0;entryDx=0;entryDy=0;" parent="1" source="9" target="5" edge="1">
                    <mxGeometry relative="1" as="geometry"/>
                </mxCell>
                <mxCell id="14" value="" style="edgeStyle=none;html=1;" parent="1" source="9" target="13" edge="1">
                    <mxGeometry relative="1" as="geometry"/>
                </mxCell>
                <mxCell id="9" value="exception ?" style="rhombus;whiteSpace=wrap;html=1;rounded=1;" parent="1" vertex="1">
                    <mxGeometry x="380" y="280" width="80" height="80" as="geometry"/>
                </mxCell>
                <mxCell id="12" value="No" style="text;html=1;strokeColor=none;fillColor=none;align=center;verticalAlign=middle;whiteSpace=wrap;rounded=0;" parent="1" vertex="1">
                    <mxGeometry x="410" y="350" width="60" height="30" as="geometry"/>
                </mxCell>
                <mxCell id="17" style="edgeStyle=none;html=1;entryX=0;entryY=0.5;entryDx=0;entryDy=0;" parent="1" source="13" target="16" edge="1">
                    <mxGeometry relative="1" as="geometry"/>
                </mxCell>
                <mxCell id="13" value="raise an intergrity exception" style="rounded=1;whiteSpace=wrap;html=1;" parent="1" vertex="1">
                    <mxGeometry x="570" y="290" width="120" height="60" as="geometry"/>
                </mxCell>
                <mxCell id="15" value="Yes" style="text;html=1;strokeColor=none;fillColor=none;align=center;verticalAlign=middle;whiteSpace=wrap;rounded=0;" parent="1" vertex="1">
                    <mxGeometry x="440" y="290" width="60" height="30" as="geometry"/>
                </mxCell>
                <mxCell id="16" value="exit" style="ellipse;whiteSpace=wrap;html=1;" parent="1" vertex="1">
                    <mxGeometry x="760" y="295" width="120" height="50" as="geometry"/>
                </mxCell>
                <mxCell id="20" style="edgeStyle=orthogonalEdgeStyle;html=1;entryX=0.5;entryY=1;entryDx=0;entryDy=0;" parent="1" source="18" target="13" edge="1">
                    <mxGeometry relative="1" as="geometry"/>
                </mxCell>
                <mxCell id="24" style="edgeStyle=orthogonalEdgeStyle;html=1;entryX=0.5;entryY=0;entryDx=0;entryDy=0;" parent="1" source="18" target="7" edge="1">
                    <mxGeometry relative="1" as="geometry"/>
                </mxCell>
                <mxCell id="18" value="exception ?" style="rhombus;whiteSpace=wrap;html=1;rounded=1;" parent="1" vertex="1">
                    <mxGeometry x="380" y="510" width="80" height="80" as="geometry"/>
                </mxCell>
                <mxCell id="21" value="Yes" style="text;html=1;strokeColor=none;fillColor=none;align=center;verticalAlign=middle;whiteSpace=wrap;rounded=0;" parent="1" vertex="1">
                    <mxGeometry x="440" y="520" width="60" height="30" as="geometry"/>
                </mxCell>
                <mxCell id="22" value="No" style="text;html=1;strokeColor=none;fillColor=none;align=center;verticalAlign=middle;whiteSpace=wrap;rounded=0;" parent="1" vertex="1">
                    <mxGeometry x="425" y="580" width="60" height="30" as="geometry"/>
                </mxCell>
                <mxCell id="30" style="edgeStyle=orthogonalEdgeStyle;html=1;entryX=0.5;entryY=0;entryDx=0;entryDy=0;" parent="1" source="28" target="29" edge="1">
                    <mxGeometry relative="1" as="geometry"/>
                </mxCell>
                <mxCell id="28" value="save data int the db" style="shape=process;whiteSpace=wrap;html=1;backgroundOutline=1;" parent="1" vertex="1">
                    <mxGeometry x="570" y="640" width="120" height="60" as="geometry"/>
                </mxCell>
                <mxCell id="29" value="return the prediction" style="ellipse;whiteSpace=wrap;html=1;" parent="1" vertex="1">
                    <mxGeometry x="570" y="810" width="120" height="50" as="geometry"/>
                </mxCell>
            </root>
        </mxGraphModel>
    </diagram>
    <diagram id="4GUBOE-L7lAtOw-XIPjp" name="get activity pool by user id">
        <mxGraphModel dx="1066" dy="604" grid="1" gridSize="10" guides="1" tooltips="1" connect="1" arrows="1" fold="1" page="1" pageScale="1" pageWidth="850" pageHeight="1100" math="0" shadow="0">
            <root>
                <mxCell id="0"/>
                <mxCell id="1" parent="0"/>
                <mxCell id="HBn0f4kiCrUHmBXdiCGE-5" value="" style="edgeStyle=none;html=1;" edge="1" parent="1" source="HBn0f4kiCrUHmBXdiCGE-1" target="HBn0f4kiCrUHmBXdiCGE-4">
                    <mxGeometry relative="1" as="geometry"/>
                </mxCell>
                <mxCell id="HBn0f4kiCrUHmBXdiCGE-1" value="fetch prediction table using user id take list of rows" style="rounded=1;whiteSpace=wrap;html=1;" vertex="1" parent="1">
                    <mxGeometry x="370" y="170" width="120" height="60" as="geometry"/>
                </mxCell>
                <mxCell id="HBn0f4kiCrUHmBXdiCGE-3" style="edgeStyle=none;html=1;entryX=0.5;entryY=0;entryDx=0;entryDy=0;" edge="1" parent="1" source="HBn0f4kiCrUHmBXdiCGE-2" target="HBn0f4kiCrUHmBXdiCGE-1">
                    <mxGeometry relative="1" as="geometry"/>
                </mxCell>
                <mxCell id="HBn0f4kiCrUHmBXdiCGE-2" value="get predicted activities" style="ellipse;whiteSpace=wrap;html=1;" vertex="1" parent="1">
                    <mxGeometry x="370" y="80" width="120" height="40" as="geometry"/>
                </mxCell>
                <mxCell id="HBn0f4kiCrUHmBXdiCGE-6" style="edgeStyle=none;html=1;entryX=0;entryY=0.5;entryDx=0;entryDy=0;" edge="1" parent="1" source="HBn0f4kiCrUHmBXdiCGE-4" target="HBn0f4kiCrUHmBXdiCGE-7">
                    <mxGeometry relative="1" as="geometry">
                        <mxPoint x="580" y="320" as="targetPoint"/>
                    </mxGeometry>
                </mxCell>
                <mxCell id="HBn0f4kiCrUHmBXdiCGE-11" value="" style="edgeStyle=none;html=1;" edge="1" parent="1" source="HBn0f4kiCrUHmBXdiCGE-4">
                    <mxGeometry relative="1" as="geometry">
                        <mxPoint x="430" y="430" as="targetPoint"/>
                    </mxGeometry>
                </mxCell>
                <mxCell id="HBn0f4kiCrUHmBXdiCGE-4" value="exception ?" style="rhombus;whiteSpace=wrap;html=1;rounded=1;" vertex="1" parent="1">
                    <mxGeometry x="390" y="280" width="80" height="80" as="geometry"/>
                </mxCell>
                <mxCell id="HBn0f4kiCrUHmBXdiCGE-7" value="exit" style="ellipse;whiteSpace=wrap;html=1;" vertex="1" parent="1">
                    <mxGeometry x="590" y="300" width="120" height="40" as="geometry"/>
                </mxCell>
                <mxCell id="HBn0f4kiCrUHmBXdiCGE-8" value="yes" style="text;html=1;strokeColor=none;fillColor=none;align=center;verticalAlign=middle;whiteSpace=wrap;rounded=0;" vertex="1" parent="1">
                    <mxGeometry x="470" y="290" width="60" height="30" as="geometry"/>
                </mxCell>
                <mxCell id="HBn0f4kiCrUHmBXdiCGE-14" value="" style="edgeStyle=none;html=1;" edge="1" parent="1" source="HBn0f4kiCrUHmBXdiCGE-12" target="HBn0f4kiCrUHmBXdiCGE-13">
                    <mxGeometry relative="1" as="geometry"/>
                </mxCell>
                <mxCell id="HBn0f4kiCrUHmBXdiCGE-18" value="" style="edgeStyle=orthogonalEdgeStyle;html=1;" edge="1" parent="1" source="HBn0f4kiCrUHmBXdiCGE-12" target="HBn0f4kiCrUHmBXdiCGE-17">
                    <mxGeometry relative="1" as="geometry"/>
                </mxCell>
                <mxCell id="HBn0f4kiCrUHmBXdiCGE-12" value="rows != 0" style="rhombus;whiteSpace=wrap;html=1;rounded=1;" vertex="1" parent="1">
                    <mxGeometry x="390" y="430" width="80" height="80" as="geometry"/>
                </mxCell>
                <mxCell id="HBn0f4kiCrUHmBXdiCGE-15" style="edgeStyle=orthogonalEdgeStyle;html=1;entryX=1;entryY=0.5;entryDx=0;entryDy=0;" edge="1" parent="1" source="HBn0f4kiCrUHmBXdiCGE-13" target="HBn0f4kiCrUHmBXdiCGE-12">
                    <mxGeometry relative="1" as="geometry">
                        <Array as="points">
                            <mxPoint x="540" y="610"/>
                            <mxPoint x="540" y="470"/>
                        </Array>
                    </mxGeometry>
                </mxCell>
                <mxCell id="HBn0f4kiCrUHmBXdiCGE-13" value="take the maximum data with record" style="whiteSpace=wrap;html=1;rounded=1;" vertex="1" parent="1">
                    <mxGeometry x="370" y="580" width="120" height="60" as="geometry"/>
                </mxCell>
                <mxCell id="HBn0f4kiCrUHmBXdiCGE-16" value="Yes" style="text;html=1;strokeColor=none;fillColor=none;align=center;verticalAlign=middle;whiteSpace=wrap;rounded=0;" vertex="1" parent="1">
                    <mxGeometry x="425" y="500" width="60" height="30" as="geometry"/>
                </mxCell>
                <mxCell id="HBn0f4kiCrUHmBXdiCGE-22" style="edgeStyle=orthogonalEdgeStyle;html=1;entryX=1;entryY=0.5;entryDx=0;entryDy=0;" edge="1" parent="1" source="HBn0f4kiCrUHmBXdiCGE-17" target="HBn0f4kiCrUHmBXdiCGE-21">
                    <mxGeometry relative="1" as="geometry"/>
                </mxCell>
                <mxCell id="HBn0f4kiCrUHmBXdiCGE-17" value="get the activities for the class_prediction or pool" style="whiteSpace=wrap;html=1;rounded=1;" vertex="1" parent="1">
                    <mxGeometry x="200" y="440" width="120" height="60" as="geometry"/>
                </mxCell>
                <mxCell id="HBn0f4kiCrUHmBXdiCGE-21" value="exit" style="ellipse;whiteSpace=wrap;html=1;" vertex="1" parent="1">
                    <mxGeometry x="30" y="450" width="120" height="40" as="geometry"/>
                </mxCell>
            </root>
        </mxGraphModel>
    </diagram>
</mxfile>